<svg xmlns="http://www.w3.org/2000/svg" width="9.443" height="13.491" viewBox="0 0 9.443 13.491">
  <path id="lightbulb-variant-outline" d="M9.722,2a4.72,4.72,0,0,0-2.7,8.593v1.524a.677.677,0,0,0,.675.675h4.047a.677.677,0,0,0,.675-.675V10.593A4.72,4.72,0,0,0,9.722,2m1.349,7.811v1.632H10.4v-3.1L11.55,7.2a.677.677,0,1,0-.958-.958l-.87.877-.87-.877a.677.677,0,0,0-.958.958L9.047,8.347v3.1H8.373V9.811a3.373,3.373,0,1,1,2.7,0M7.7,14.141h4.047v.675a.677.677,0,0,1-.675.675h-2.7a.677.677,0,0,1-.675-.675Z" transform="translate(-5 -2)" fill="#fff"/>
</svg>
