<svg xmlns="http://www.w3.org/2000/svg" width="59" height="59" viewBox="0 0 59 59">
  <g id="Group_247" data-name="Group 247" transform="translate(-1327 -277)">
    <circle id="Ellipse_8" data-name="Ellipse 8" cx="29.5" cy="29.5" r="29.5" transform="translate(1327 277)" fill="#ff821d"/>
    <path id="rocket-launch" d="M13.13,22.19,11.5,18.36a21.048,21.048,0,0,0,4.4-2.27l-2.77,6.1M5.64,12.5,1.81,10.87,7.91,8.1a21.048,21.048,0,0,0-2.27,4.4M21.61,2.39S16.66.269,11,5.93a19.816,19.816,0,0,0-4.35,6.71,2.019,2.019,0,0,0,.46,2.13l2.13,2.12a1.979,1.979,0,0,0,2.12.46A19.1,19.1,0,0,0,18.07,13c5.66-5.66,3.54-10.61,3.54-10.61M14.54,9.46a2,2,0,1,1,2.83,0,2,2,0,0,1-2.83,0M8.88,16.53,7.47,15.12l1.41,1.41M6.24,22l3.64-3.64a3.056,3.056,0,0,1-.97-.45L4.83,22H6.24M2,22H3.41l4.77-4.76L6.76,15.83,2,20.59V22m0-2.83,4.09-4.08a2.958,2.958,0,0,1-.45-.97L2,17.76Z" transform="translate(1344.19 293.999)" fill="#fff"/>
  </g>
</svg>
